<svg width="370" height="145" viewBox="0 0 370 145" fill="none" xmlns="http://www.w3.org/2000/svg">
<path d="M53.4684 125.695C56.7174 125.695 58.4012 128.045 58.6786 131.452L54.9938 132.409C54.9344 130.715 54.5976 129.201 53.3892 129.201C52.0619 129.201 51.4478 131.233 51.4478 135.317C51.4478 139.402 52.1015 141.494 53.409 141.494C54.5976 141.494 54.9146 139.92 55.0137 138.226L58.6984 139.182C58.4211 142.589 56.7372 145 53.4486 145C49.546 145 47.3074 141.673 47.3074 135.317C47.3074 128.962 49.546 125.695 53.4486 125.695H53.4684Z" fill="#AA9767"></path>
<path d="M76.2703 135.357C76.2703 141.653 74.0515 145 70.0498 145C66.0481 145 63.8491 141.653 63.8491 135.357C63.8491 129.062 66.0679 125.714 70.0498 125.714C74.0317 125.714 76.2703 129.081 76.2703 135.357ZM67.9895 135.357C67.9895 139.681 68.5442 141.613 70.03 141.613C71.5158 141.613 72.0705 139.661 72.0705 135.357C72.0705 131.054 71.5158 129.101 70.03 129.101C68.5442 129.101 67.9895 131.054 67.9895 135.357Z" fill="#AA9767"></path>
<path d="M89.365 138.904V125.934H93.4063V138.684C93.4063 142.709 91.4055 145 87.6811 145C83.9567 145 81.9559 142.709 81.9559 138.684V125.934H85.9972V138.904C85.9972 140.458 86.334 141.633 87.6811 141.633C89.0282 141.633 89.365 140.438 89.365 138.904Z" fill="#AA9767"></path>
<path d="M107.333 144.781C107.056 144.303 106.877 143.625 106.739 142.749L106.343 139.282C106.144 138.047 105.649 137.589 104.639 137.589H103.609V144.781H99.6268V125.934H105.312C109.215 125.934 111.038 127.906 111.038 131.412C111.038 134.042 109.552 135.596 107.927 135.955V136.015C109.156 136.294 110.067 137.25 110.305 138.943L110.8 142.649C110.919 143.486 111.137 144.203 111.533 144.801H107.333V144.781ZM104.817 129.201H103.609V134.501H104.837C106.461 134.501 106.917 133.564 106.917 131.851C106.917 130.137 106.461 129.201 104.817 129.201Z" fill="#AA9767"></path>
<path d="M124.212 140.537H120.626L119.893 144.761H116.109L119.952 125.914H125.004L128.847 144.761H124.945L124.212 140.537ZM121.161 137.489H123.677L122.448 130.416H122.369L121.161 137.489Z" fill="#AA9767"></path>
<path d="M145.112 134.779V144.761H142.398L142.001 142.808C141.506 144.143 140.318 144.98 138.713 144.98C135.286 144.98 133.245 141.434 133.245 135.556C133.245 129.201 135.622 125.675 139.604 125.675C142.932 125.675 144.676 128.026 144.953 131.432L141.169 132.389C141.09 130.695 140.753 129.181 139.505 129.181C138.099 129.181 137.366 131.412 137.366 135.556C137.366 139.402 137.98 141.533 139.525 141.533C140.654 141.533 141.288 140.577 141.288 138.565V137.748H139.624V134.76H145.072L145.112 134.779Z" fill="#AA9767"></path>
<path d="M160.425 144.781H151.293V125.934H160.425V129.281H155.235V133.624H159.613V136.812H155.235V141.414H160.425V144.781Z" fill="#AA9767"></path>
<path d="M178.354 144.781V129.281H174.827V125.934H185.921V129.281H182.395V144.781H178.354Z" fill="#AA9767"></path>
<path d="M202.899 135.357C202.899 141.653 200.68 145 196.678 145C192.677 145 190.478 141.653 190.478 135.357C190.478 129.062 192.696 125.714 196.678 125.714C200.66 125.714 202.899 129.081 202.899 135.357ZM194.618 135.357C194.618 139.681 195.173 141.613 196.658 141.613C198.144 141.613 198.699 139.661 198.699 135.357C198.699 131.054 198.144 129.101 196.658 129.101C195.173 129.101 194.618 131.054 194.618 135.357Z" fill="#AA9767"></path>
<path d="M225.503 135.178C227.543 135.636 228.672 137.23 228.672 139.641C228.672 142.749 226.869 144.781 222.987 144.781H217.737V125.934H222.927C226.513 125.934 228.236 127.826 228.236 130.875C228.236 133.245 227.206 134.72 225.522 135.138V135.198L225.503 135.178ZM221.54 133.843H222.491C223.918 133.843 224.393 133.046 224.393 131.452C224.393 129.858 223.918 129.101 222.491 129.101H221.54V133.843ZM221.54 141.573H222.709C224.195 141.573 224.71 140.756 224.71 139.143C224.71 137.529 224.175 136.712 222.709 136.712H221.54V141.573Z" fill="#AA9767"></path>
<path d="M243.57 144.781H234.437V125.934H243.57V129.281H238.379V133.624H242.757V136.812H238.379V141.414H243.57V144.781Z" fill="#AA9767"></path>
<path d="M266.272 139.999H264.272L262.409 132.787H262.31V144.781H258.606V125.934H262.984L265.282 133.963H265.381L267.699 125.934H271.958V144.781H268.234V132.787H268.174L266.272 139.999Z" fill="#AA9767"></path>
<path d="M290.263 135.357C290.263 141.653 288.044 145 284.042 145C280.041 145 277.842 141.653 277.842 135.357C277.842 129.062 280.06 125.714 284.042 125.714C288.024 125.714 290.263 129.081 290.263 135.357ZM281.982 135.357C281.982 139.681 282.537 141.613 284.023 141.613C285.508 141.613 286.063 139.661 286.063 135.357C286.063 131.054 285.508 129.101 284.023 129.101C282.537 129.101 281.982 131.054 281.982 135.357Z" fill="#AA9767"></path>
<path d="M303.813 144.781C303.536 144.303 303.358 143.625 303.219 142.749L302.823 139.282C302.625 138.047 302.129 137.589 301.119 137.589H300.089V144.781H296.107V125.934H301.793C305.695 125.934 307.518 127.906 307.518 131.412C307.518 134.042 306.032 135.596 304.408 135.955V136.015C305.636 136.294 306.547 137.25 306.785 138.943L307.28 142.649C307.399 143.486 307.617 144.203 308.013 144.801H303.813V144.781ZM301.297 129.201H300.089V134.501H301.317C302.942 134.501 303.397 133.564 303.397 131.851C303.397 130.137 302.942 129.201 301.297 129.201Z" fill="#AA9767"></path>
<path d="M322.653 144.781H313.52V125.934H322.653V129.281H317.463V133.624H321.841V136.812H317.463V141.414H322.653V144.781Z" fill="#AA9767"></path>
<path d="M244.917 81.3857C251.316 87.5817 258.13 93.2001 266.114 97.8621H222.313C225.285 94.7939 224.869 91.7258 222.888 88.6576C222.055 87.3825 221.164 86.1274 220.074 85.0714C209.476 74.8708 198.857 64.6902 188.219 54.5294C187.764 54.0911 187.189 53.7524 186.139 52.9555V83.8362C186.139 89.6936 187.585 94.8138 194.182 97.8421H156.8C163.951 94.1364 164.486 88.1197 164.447 81.6646C164.348 59.9883 164.407 15.2611 164.407 14.5638C164.506 8.88568 163.218 3.84515 157.077 0.498076H193.41C187.011 4.00453 186.08 9.4236 186.1 15.3408C186.139 25.9 186.1 49.4291 186.1 51.1226C187.367 50.4053 188.239 50.0069 188.972 49.4689L241.272 11.1171C244.204 8.96537 244.838 4.80146 242.658 1.87277L241.727 0.597692H264.034L205.335 43.253L244.838 81.4056L244.917 81.3857ZM329.606 51.0429C339.175 50.9831 346.861 55.0673 351.418 63.694C351.517 63.8733 351.418 63.694 351.477 63.7339V33.4707C350.903 34.2278 351.675 33.1121 351.477 33.4707C347 41.5595 338.997 46.6 329.904 46.5203C322.693 46.4606 315.462 46.5203 308.251 46.5004V51.0628C315.383 51.0628 322.495 51.0827 329.626 51.0429H329.606ZM367.9 79.0148C363.7 88.7373 356.905 93.4192 345.752 93.7778C333.886 94.1763 316.333 94.1962 307.102 93.3395C304.784 93.1204 303.318 91.6461 302.743 89.4545C302.327 87.8607 302.05 86.1871 302.03 84.5535C301.931 79.6922 302.209 15.8787 302.209 4.96084C303.615 4.88115 330.676 4.42292 346.822 4.72176C353.795 4.86123 359.184 7.41138 363.106 13.0098C365.127 15.8986 366.652 19.1261 368.534 22.4334V0.498076H273.067C279.724 4.38307 280.338 10.0213 280.318 16.058C280.239 38.7105 280.278 61.3829 280.318 84.0355C280.318 89.7733 278.951 94.7541 272.869 97.8621H370V74.1536C369.089 76.3053 368.514 77.6601 367.94 79.0148H367.9ZM139.367 84.2347C139.367 83.2585 139.406 38.5312 139.347 17.1538C139.347 10.7186 139.485 4.46276 146.38 0.537923H110.245C116.525 3.78538 117.635 8.76614 117.635 14.2848V83.8761C117.635 85.3902 117.456 86.9243 117.278 88.4384C116.763 92.6422 114.108 95.4314 110.424 97.8421H147.35C140.932 94.9134 139.446 89.9526 139.367 84.2347ZM92.8516 8.12861C85.502 2.17161 76.9835 0 67.7122 0H0.475451C4.61584 2.59 7.82513 8.64661 7.82513 14.0458C7.80532 36.8377 7.7657 59.6297 7.84494 82.4018C7.86475 88.6377 6.95347 94.2759 0 97.9417H36.273C32.3901 95.3318 29.9336 91.8453 29.7949 87.3028C29.6365 81.7443 29.6761 70.5475 29.6761 70.5475V4.78153C30.7062 4.68192 31.6373 4.52253 32.5486 4.52253C40.5718 4.52253 48.5951 4.44284 56.6183 4.52253C77.8155 4.78153 86.9679 27.8724 78.3504 42.9342C74.4675 49.708 68.1876 53.4735 60.8776 55.3064C52.6562 57.3784 44.316 58.514 35.6588 57.6573V62.1998C45.1679 63.3354 54.6571 62.9768 64.1661 62.0603C72.1695 61.2833 79.955 59.8289 87.3641 56.3225C107.194 46.9387 108.324 20.7399 92.7922 8.12861H92.8516Z" fill="white"></path>
</svg>